<mxfile host="app.diagrams.net" modified="2022-11-10T02:49:32.321Z" agent="5.0 (Macintosh; Intel Mac OS X 10_15_7) AppleWebKit/537.36 (KHTML, like Gecko) Chrome/107.0.0.0 Safari/537.36" etag="u48Zi7X3zicK3t99JlSz" version="20.5.3" type="github">
  <diagram id="R2lEEEUBdFMjLlhIrx00" name="Page-1">
    <mxGraphModel dx="2908" dy="1825" grid="0" gridSize="10" guides="1" tooltips="1" connect="1" arrows="1" fold="1" page="0" pageScale="1" pageWidth="1100" pageHeight="850" math="0" shadow="0" extFonts="Permanent Marker^https://fonts.googleapis.com/css?family=Permanent+Marker">
      <root>
        <mxCell id="0" />
        <mxCell id="1" parent="0" />
        <mxCell id="C-vyLk0tnHw3VtMMgP7b-2" value="requests" style="shape=table;startSize=30;container=1;collapsible=1;childLayout=tableLayout;fixedRows=1;rowLines=0;fontStyle=1;align=center;resizeLast=1;" parent="1" vertex="1">
          <mxGeometry x="-640" y="-341" width="214" height="225" as="geometry" />
        </mxCell>
        <mxCell id="C-vyLk0tnHw3VtMMgP7b-3" value="" style="shape=partialRectangle;collapsible=0;dropTarget=0;pointerEvents=0;fillColor=none;points=[[0,0.5],[1,0.5]];portConstraint=eastwest;top=0;left=0;right=0;bottom=1;" parent="C-vyLk0tnHw3VtMMgP7b-2" vertex="1">
          <mxGeometry y="30" width="214" height="30" as="geometry" />
        </mxCell>
        <mxCell id="C-vyLk0tnHw3VtMMgP7b-4" value="PK" style="shape=partialRectangle;overflow=hidden;connectable=0;fillColor=none;top=0;left=0;bottom=0;right=0;fontStyle=1;" parent="C-vyLk0tnHw3VtMMgP7b-3" vertex="1">
          <mxGeometry width="30" height="30" as="geometry">
            <mxRectangle width="30" height="30" as="alternateBounds" />
          </mxGeometry>
        </mxCell>
        <mxCell id="C-vyLk0tnHw3VtMMgP7b-5" value="request_idÂ int NOT NULL " style="shape=partialRectangle;overflow=hidden;connectable=0;fillColor=none;top=0;left=0;bottom=0;right=0;align=left;spacingLeft=6;fontStyle=5;" parent="C-vyLk0tnHw3VtMMgP7b-3" vertex="1">
          <mxGeometry x="30" width="184" height="30" as="geometry">
            <mxRectangle width="184" height="30" as="alternateBounds" />
          </mxGeometry>
        </mxCell>
        <mxCell id="C-vyLk0tnHw3VtMMgP7b-6" value="" style="shape=partialRectangle;collapsible=0;dropTarget=0;pointerEvents=0;fillColor=none;points=[[0,0.5],[1,0.5]];portConstraint=eastwest;top=0;left=0;right=0;bottom=0;" parent="C-vyLk0tnHw3VtMMgP7b-2" vertex="1">
          <mxGeometry y="60" width="214" height="30" as="geometry" />
        </mxCell>
        <mxCell id="C-vyLk0tnHw3VtMMgP7b-7" value="FK1" style="shape=partialRectangle;overflow=hidden;connectable=0;fillColor=none;top=0;left=0;bottom=0;right=0;" parent="C-vyLk0tnHw3VtMMgP7b-6" vertex="1">
          <mxGeometry width="30" height="30" as="geometry">
            <mxRectangle width="30" height="30" as="alternateBounds" />
          </mxGeometry>
        </mxCell>
        <mxCell id="C-vyLk0tnHw3VtMMgP7b-8" value="user_id int NOT NULL" style="shape=partialRectangle;overflow=hidden;connectable=0;fillColor=none;top=0;left=0;bottom=0;right=0;align=left;spacingLeft=6;" parent="C-vyLk0tnHw3VtMMgP7b-6" vertex="1">
          <mxGeometry x="30" width="184" height="30" as="geometry">
            <mxRectangle width="184" height="30" as="alternateBounds" />
          </mxGeometry>
        </mxCell>
        <mxCell id="C-vyLk0tnHw3VtMMgP7b-9" value="" style="shape=partialRectangle;collapsible=0;dropTarget=0;pointerEvents=0;fillColor=none;points=[[0,0.5],[1,0.5]];portConstraint=eastwest;top=0;left=0;right=0;bottom=0;" parent="C-vyLk0tnHw3VtMMgP7b-2" vertex="1">
          <mxGeometry y="90" width="214" height="30" as="geometry" />
        </mxCell>
        <mxCell id="C-vyLk0tnHw3VtMMgP7b-10" value="" style="shape=partialRectangle;overflow=hidden;connectable=0;fillColor=none;top=0;left=0;bottom=0;right=0;" parent="C-vyLk0tnHw3VtMMgP7b-9" vertex="1">
          <mxGeometry width="30" height="30" as="geometry">
            <mxRectangle width="30" height="30" as="alternateBounds" />
          </mxGeometry>
        </mxCell>
        <mxCell id="C-vyLk0tnHw3VtMMgP7b-11" value="request_at date NOT NULL" style="shape=partialRectangle;overflow=hidden;connectable=0;fillColor=none;top=0;left=0;bottom=0;right=0;align=left;spacingLeft=6;" parent="C-vyLk0tnHw3VtMMgP7b-9" vertex="1">
          <mxGeometry x="30" width="184" height="30" as="geometry">
            <mxRectangle width="184" height="30" as="alternateBounds" />
          </mxGeometry>
        </mxCell>
        <mxCell id="eUyd_0DqcIvyvXxCe3qK-107" style="shape=partialRectangle;collapsible=0;dropTarget=0;pointerEvents=0;fillColor=none;points=[[0,0.5],[1,0.5]];portConstraint=eastwest;top=0;left=0;right=0;bottom=0;" parent="C-vyLk0tnHw3VtMMgP7b-2" vertex="1">
          <mxGeometry y="120" width="214" height="30" as="geometry" />
        </mxCell>
        <mxCell id="eUyd_0DqcIvyvXxCe3qK-108" style="shape=partialRectangle;overflow=hidden;connectable=0;fillColor=none;top=0;left=0;bottom=0;right=0;" parent="eUyd_0DqcIvyvXxCe3qK-107" vertex="1">
          <mxGeometry width="30" height="30" as="geometry">
            <mxRectangle width="30" height="30" as="alternateBounds" />
          </mxGeometry>
        </mxCell>
        <mxCell id="eUyd_0DqcIvyvXxCe3qK-109" value="request_shift int NOT NULL" style="shape=partialRectangle;overflow=hidden;connectable=0;fillColor=none;top=0;left=0;bottom=0;right=0;align=left;spacingLeft=6;" parent="eUyd_0DqcIvyvXxCe3qK-107" vertex="1">
          <mxGeometry x="30" width="184" height="30" as="geometry">
            <mxRectangle width="184" height="30" as="alternateBounds" />
          </mxGeometry>
        </mxCell>
        <mxCell id="eUyd_0DqcIvyvXxCe3qK-114" style="shape=partialRectangle;collapsible=0;dropTarget=0;pointerEvents=0;fillColor=none;points=[[0,0.5],[1,0.5]];portConstraint=eastwest;top=0;left=0;right=0;bottom=0;" parent="C-vyLk0tnHw3VtMMgP7b-2" vertex="1">
          <mxGeometry y="150" width="214" height="30" as="geometry" />
        </mxCell>
        <mxCell id="eUyd_0DqcIvyvXxCe3qK-115" style="shape=partialRectangle;overflow=hidden;connectable=0;fillColor=none;top=0;left=0;bottom=0;right=0;" parent="eUyd_0DqcIvyvXxCe3qK-114" vertex="1">
          <mxGeometry width="30" height="30" as="geometry">
            <mxRectangle width="30" height="30" as="alternateBounds" />
          </mxGeometry>
        </mxCell>
        <mxCell id="eUyd_0DqcIvyvXxCe3qK-116" value="created_at date NOT NULL" style="shape=partialRectangle;overflow=hidden;connectable=0;fillColor=none;top=0;left=0;bottom=0;right=0;align=left;spacingLeft=6;" parent="eUyd_0DqcIvyvXxCe3qK-114" vertex="1">
          <mxGeometry x="30" width="184" height="30" as="geometry">
            <mxRectangle width="184" height="30" as="alternateBounds" />
          </mxGeometry>
        </mxCell>
        <mxCell id="eUyd_0DqcIvyvXxCe3qK-111" style="shape=partialRectangle;collapsible=0;dropTarget=0;pointerEvents=0;fillColor=none;points=[[0,0.5],[1,0.5]];portConstraint=eastwest;top=0;left=0;right=0;bottom=0;" parent="C-vyLk0tnHw3VtMMgP7b-2" vertex="1">
          <mxGeometry y="180" width="214" height="30" as="geometry" />
        </mxCell>
        <mxCell id="eUyd_0DqcIvyvXxCe3qK-112" style="shape=partialRectangle;overflow=hidden;connectable=0;fillColor=none;top=0;left=0;bottom=0;right=0;" parent="eUyd_0DqcIvyvXxCe3qK-111" vertex="1">
          <mxGeometry width="30" height="30" as="geometry">
            <mxRectangle width="30" height="30" as="alternateBounds" />
          </mxGeometry>
        </mxCell>
        <mxCell id="eUyd_0DqcIvyvXxCe3qK-113" value="updated_at date NOT NULL" style="shape=partialRectangle;overflow=hidden;connectable=0;fillColor=none;top=0;left=0;bottom=0;right=0;align=left;spacingLeft=6;" parent="eUyd_0DqcIvyvXxCe3qK-111" vertex="1">
          <mxGeometry x="30" width="184" height="30" as="geometry">
            <mxRectangle width="184" height="30" as="alternateBounds" />
          </mxGeometry>
        </mxCell>
        <mxCell id="C-vyLk0tnHw3VtMMgP7b-23" value="users" style="shape=table;startSize=30;container=1;collapsible=1;childLayout=tableLayout;fixedRows=1;rowLines=0;fontStyle=1;align=center;resizeLast=1;" parent="1" vertex="1">
          <mxGeometry x="-930" y="-500" width="223" height="340" as="geometry" />
        </mxCell>
        <mxCell id="C-vyLk0tnHw3VtMMgP7b-24" value="" style="shape=partialRectangle;collapsible=0;dropTarget=0;pointerEvents=0;fillColor=none;points=[[0,0.5],[1,0.5]];portConstraint=eastwest;top=0;left=0;right=0;bottom=1;" parent="C-vyLk0tnHw3VtMMgP7b-23" vertex="1">
          <mxGeometry y="30" width="223" height="30" as="geometry" />
        </mxCell>
        <mxCell id="C-vyLk0tnHw3VtMMgP7b-25" value="PK" style="shape=partialRectangle;overflow=hidden;connectable=0;fillColor=none;top=0;left=0;bottom=0;right=0;fontStyle=1;" parent="C-vyLk0tnHw3VtMMgP7b-24" vertex="1">
          <mxGeometry width="30" height="30" as="geometry">
            <mxRectangle width="30" height="30" as="alternateBounds" />
          </mxGeometry>
        </mxCell>
        <mxCell id="C-vyLk0tnHw3VtMMgP7b-26" value="user_id int NOT NULL " style="shape=partialRectangle;overflow=hidden;connectable=0;fillColor=none;top=0;left=0;bottom=0;right=0;align=left;spacingLeft=6;fontStyle=5;" parent="C-vyLk0tnHw3VtMMgP7b-24" vertex="1">
          <mxGeometry x="30" width="193" height="30" as="geometry">
            <mxRectangle width="193" height="30" as="alternateBounds" />
          </mxGeometry>
        </mxCell>
        <mxCell id="eUyd_0DqcIvyvXxCe3qK-10" style="shape=partialRectangle;collapsible=0;dropTarget=0;pointerEvents=0;fillColor=none;points=[[0,0.5],[1,0.5]];portConstraint=eastwest;top=0;left=0;right=0;bottom=0;" parent="C-vyLk0tnHw3VtMMgP7b-23" vertex="1">
          <mxGeometry y="60" width="223" height="30" as="geometry" />
        </mxCell>
        <mxCell id="eUyd_0DqcIvyvXxCe3qK-11" value="FK1" style="shape=partialRectangle;overflow=hidden;connectable=0;fillColor=none;top=0;left=0;bottom=0;right=0;" parent="eUyd_0DqcIvyvXxCe3qK-10" vertex="1">
          <mxGeometry width="30" height="30" as="geometry">
            <mxRectangle width="30" height="30" as="alternateBounds" />
          </mxGeometry>
        </mxCell>
        <mxCell id="eUyd_0DqcIvyvXxCe3qK-12" value="department_id int NOT NULL" style="shape=partialRectangle;overflow=hidden;connectable=0;fillColor=none;top=0;left=0;bottom=0;right=0;align=left;spacingLeft=6;" parent="eUyd_0DqcIvyvXxCe3qK-10" vertex="1">
          <mxGeometry x="30" width="193" height="30" as="geometry">
            <mxRectangle width="193" height="30" as="alternateBounds" />
          </mxGeometry>
        </mxCell>
        <mxCell id="n4sFxxok8GWUAqDK3mre-1" style="shape=partialRectangle;collapsible=0;dropTarget=0;pointerEvents=0;fillColor=none;points=[[0,0.5],[1,0.5]];portConstraint=eastwest;top=0;left=0;right=0;bottom=0;" parent="C-vyLk0tnHw3VtMMgP7b-23" vertex="1">
          <mxGeometry y="90" width="223" height="30" as="geometry" />
        </mxCell>
        <mxCell id="n4sFxxok8GWUAqDK3mre-2" value="FK2" style="shape=partialRectangle;overflow=hidden;connectable=0;fillColor=none;top=0;left=0;bottom=0;right=0;" parent="n4sFxxok8GWUAqDK3mre-1" vertex="1">
          <mxGeometry width="30" height="30" as="geometry">
            <mxRectangle width="30" height="30" as="alternateBounds" />
          </mxGeometry>
        </mxCell>
        <mxCell id="n4sFxxok8GWUAqDK3mre-3" value="ability_id int NOT NULL" style="shape=partialRectangle;overflow=hidden;connectable=0;fillColor=none;top=0;left=0;bottom=0;right=0;align=left;spacingLeft=6;" parent="n4sFxxok8GWUAqDK3mre-1" vertex="1">
          <mxGeometry x="30" width="193" height="30" as="geometry">
            <mxRectangle width="193" height="30" as="alternateBounds" />
          </mxGeometry>
        </mxCell>
        <mxCell id="C-vyLk0tnHw3VtMMgP7b-27" value="" style="shape=partialRectangle;collapsible=0;dropTarget=0;pointerEvents=0;fillColor=none;points=[[0,0.5],[1,0.5]];portConstraint=eastwest;top=0;left=0;right=0;bottom=0;" parent="C-vyLk0tnHw3VtMMgP7b-23" vertex="1">
          <mxGeometry y="120" width="223" height="30" as="geometry" />
        </mxCell>
        <mxCell id="C-vyLk0tnHw3VtMMgP7b-28" value="" style="shape=partialRectangle;overflow=hidden;connectable=0;fillColor=none;top=0;left=0;bottom=0;right=0;" parent="C-vyLk0tnHw3VtMMgP7b-27" vertex="1">
          <mxGeometry width="30" height="30" as="geometry">
            <mxRectangle width="30" height="30" as="alternateBounds" />
          </mxGeometry>
        </mxCell>
        <mxCell id="C-vyLk0tnHw3VtMMgP7b-29" value="last_name char(50) NOT NULL" style="shape=partialRectangle;overflow=hidden;connectable=0;fillColor=none;top=0;left=0;bottom=0;right=0;align=left;spacingLeft=6;" parent="C-vyLk0tnHw3VtMMgP7b-27" vertex="1">
          <mxGeometry x="30" width="193" height="30" as="geometry">
            <mxRectangle width="193" height="30" as="alternateBounds" />
          </mxGeometry>
        </mxCell>
        <mxCell id="eUyd_0DqcIvyvXxCe3qK-1" style="shape=partialRectangle;collapsible=0;dropTarget=0;pointerEvents=0;fillColor=none;points=[[0,0.5],[1,0.5]];portConstraint=eastwest;top=0;left=0;right=0;bottom=0;" parent="C-vyLk0tnHw3VtMMgP7b-23" vertex="1">
          <mxGeometry y="150" width="223" height="30" as="geometry" />
        </mxCell>
        <mxCell id="eUyd_0DqcIvyvXxCe3qK-2" style="shape=partialRectangle;overflow=hidden;connectable=0;fillColor=none;top=0;left=0;bottom=0;right=0;" parent="eUyd_0DqcIvyvXxCe3qK-1" vertex="1">
          <mxGeometry width="30" height="30" as="geometry">
            <mxRectangle width="30" height="30" as="alternateBounds" />
          </mxGeometry>
        </mxCell>
        <mxCell id="eUyd_0DqcIvyvXxCe3qK-3" value="first_name char(50) NOT NULL" style="shape=partialRectangle;overflow=hidden;connectable=0;fillColor=none;top=0;left=0;bottom=0;right=0;align=left;spacingLeft=6;" parent="eUyd_0DqcIvyvXxCe3qK-1" vertex="1">
          <mxGeometry x="30" width="193" height="30" as="geometry">
            <mxRectangle width="193" height="30" as="alternateBounds" />
          </mxGeometry>
        </mxCell>
        <mxCell id="XBP4z5iZkI8xwQalae-l-26" style="shape=partialRectangle;collapsible=0;dropTarget=0;pointerEvents=0;fillColor=none;points=[[0,0.5],[1,0.5]];portConstraint=eastwest;top=0;left=0;right=0;bottom=0;" vertex="1" parent="C-vyLk0tnHw3VtMMgP7b-23">
          <mxGeometry y="180" width="223" height="30" as="geometry" />
        </mxCell>
        <mxCell id="XBP4z5iZkI8xwQalae-l-27" style="shape=partialRectangle;overflow=hidden;connectable=0;fillColor=none;top=0;left=0;bottom=0;right=0;" vertex="1" parent="XBP4z5iZkI8xwQalae-l-26">
          <mxGeometry width="30" height="30" as="geometry">
            <mxRectangle width="30" height="30" as="alternateBounds" />
          </mxGeometry>
        </mxCell>
        <mxCell id="XBP4z5iZkI8xwQalae-l-28" value="e-mail char(50) NOT NULL" style="shape=partialRectangle;overflow=hidden;connectable=0;fillColor=none;top=0;left=0;bottom=0;right=0;align=left;spacingLeft=6;" vertex="1" parent="XBP4z5iZkI8xwQalae-l-26">
          <mxGeometry x="30" width="193" height="30" as="geometry">
            <mxRectangle width="193" height="30" as="alternateBounds" />
          </mxGeometry>
        </mxCell>
        <mxCell id="XBP4z5iZkI8xwQalae-l-23" style="shape=partialRectangle;collapsible=0;dropTarget=0;pointerEvents=0;fillColor=none;points=[[0,0.5],[1,0.5]];portConstraint=eastwest;top=0;left=0;right=0;bottom=0;" vertex="1" parent="C-vyLk0tnHw3VtMMgP7b-23">
          <mxGeometry y="210" width="223" height="30" as="geometry" />
        </mxCell>
        <mxCell id="XBP4z5iZkI8xwQalae-l-24" style="shape=partialRectangle;overflow=hidden;connectable=0;fillColor=none;top=0;left=0;bottom=0;right=0;" vertex="1" parent="XBP4z5iZkI8xwQalae-l-23">
          <mxGeometry width="30" height="30" as="geometry">
            <mxRectangle width="30" height="30" as="alternateBounds" />
          </mxGeometry>
        </mxCell>
        <mxCell id="XBP4z5iZkI8xwQalae-l-25" value="password char(50) NOT NULL" style="shape=partialRectangle;overflow=hidden;connectable=0;fillColor=none;top=0;left=0;bottom=0;right=0;align=left;spacingLeft=6;" vertex="1" parent="XBP4z5iZkI8xwQalae-l-23">
          <mxGeometry x="30" width="193" height="30" as="geometry">
            <mxRectangle width="193" height="30" as="alternateBounds" />
          </mxGeometry>
        </mxCell>
        <mxCell id="XBP4z5iZkI8xwQalae-l-29" style="shape=partialRectangle;collapsible=0;dropTarget=0;pointerEvents=0;fillColor=none;points=[[0,0.5],[1,0.5]];portConstraint=eastwest;top=0;left=0;right=0;bottom=0;" vertex="1" parent="C-vyLk0tnHw3VtMMgP7b-23">
          <mxGeometry y="240" width="223" height="30" as="geometry" />
        </mxCell>
        <mxCell id="XBP4z5iZkI8xwQalae-l-30" style="shape=partialRectangle;overflow=hidden;connectable=0;fillColor=none;top=0;left=0;bottom=0;right=0;" vertex="1" parent="XBP4z5iZkI8xwQalae-l-29">
          <mxGeometry width="30" height="30" as="geometry">
            <mxRectangle width="30" height="30" as="alternateBounds" />
          </mxGeometry>
        </mxCell>
        <mxCell id="XBP4z5iZkI8xwQalae-l-31" value="admin boolean DEFAULT=False" style="shape=partialRectangle;overflow=hidden;connectable=0;fillColor=none;top=0;left=0;bottom=0;right=0;align=left;spacingLeft=6;" vertex="1" parent="XBP4z5iZkI8xwQalae-l-29">
          <mxGeometry x="30" width="193" height="30" as="geometry">
            <mxRectangle width="193" height="30" as="alternateBounds" />
          </mxGeometry>
        </mxCell>
        <mxCell id="eUyd_0DqcIvyvXxCe3qK-7" style="shape=partialRectangle;collapsible=0;dropTarget=0;pointerEvents=0;fillColor=none;points=[[0,0.5],[1,0.5]];portConstraint=eastwest;top=0;left=0;right=0;bottom=0;" parent="C-vyLk0tnHw3VtMMgP7b-23" vertex="1">
          <mxGeometry y="270" width="223" height="30" as="geometry" />
        </mxCell>
        <mxCell id="eUyd_0DqcIvyvXxCe3qK-8" style="shape=partialRectangle;overflow=hidden;connectable=0;fillColor=none;top=0;left=0;bottom=0;right=0;" parent="eUyd_0DqcIvyvXxCe3qK-7" vertex="1">
          <mxGeometry width="30" height="30" as="geometry">
            <mxRectangle width="30" height="30" as="alternateBounds" />
          </mxGeometry>
        </mxCell>
        <mxCell id="eUyd_0DqcIvyvXxCe3qK-9" value="created_at date NOT NULL" style="shape=partialRectangle;overflow=hidden;connectable=0;fillColor=none;top=0;left=0;bottom=0;right=0;align=left;spacingLeft=6;" parent="eUyd_0DqcIvyvXxCe3qK-7" vertex="1">
          <mxGeometry x="30" width="193" height="30" as="geometry">
            <mxRectangle width="193" height="30" as="alternateBounds" />
          </mxGeometry>
        </mxCell>
        <mxCell id="eUyd_0DqcIvyvXxCe3qK-4" style="shape=partialRectangle;collapsible=0;dropTarget=0;pointerEvents=0;fillColor=none;points=[[0,0.5],[1,0.5]];portConstraint=eastwest;top=0;left=0;right=0;bottom=0;" parent="C-vyLk0tnHw3VtMMgP7b-23" vertex="1">
          <mxGeometry y="300" width="223" height="30" as="geometry" />
        </mxCell>
        <mxCell id="eUyd_0DqcIvyvXxCe3qK-5" style="shape=partialRectangle;overflow=hidden;connectable=0;fillColor=none;top=0;left=0;bottom=0;right=0;" parent="eUyd_0DqcIvyvXxCe3qK-4" vertex="1">
          <mxGeometry width="30" height="30" as="geometry">
            <mxRectangle width="30" height="30" as="alternateBounds" />
          </mxGeometry>
        </mxCell>
        <mxCell id="eUyd_0DqcIvyvXxCe3qK-6" value="updated_at date NOT NULL" style="shape=partialRectangle;overflow=hidden;connectable=0;fillColor=none;top=0;left=0;bottom=0;right=0;align=left;spacingLeft=6;" parent="eUyd_0DqcIvyvXxCe3qK-4" vertex="1">
          <mxGeometry x="30" width="193" height="30" as="geometry">
            <mxRectangle width="193" height="30" as="alternateBounds" />
          </mxGeometry>
        </mxCell>
        <mxCell id="eUyd_0DqcIvyvXxCe3qK-26" value="departments" style="shape=table;startSize=30;container=1;collapsible=1;childLayout=tableLayout;fixedRows=1;rowLines=0;fontStyle=1;align=center;resizeLast=1;" parent="1" vertex="1">
          <mxGeometry x="-1290" y="-630" width="267" height="170" as="geometry" />
        </mxCell>
        <mxCell id="eUyd_0DqcIvyvXxCe3qK-27" value="" style="shape=tableRow;horizontal=0;startSize=0;swimlaneHead=0;swimlaneBody=0;fillColor=none;collapsible=0;dropTarget=0;points=[[0,0.5],[1,0.5]];portConstraint=eastwest;top=0;left=0;right=0;bottom=1;swimlaneLine=1;" parent="eUyd_0DqcIvyvXxCe3qK-26" vertex="1">
          <mxGeometry y="30" width="267" height="30" as="geometry" />
        </mxCell>
        <mxCell id="eUyd_0DqcIvyvXxCe3qK-28" value="PK" style="shape=partialRectangle;connectable=0;fillColor=none;top=0;left=0;bottom=0;right=0;fontStyle=1;overflow=hidden;" parent="eUyd_0DqcIvyvXxCe3qK-27" vertex="1">
          <mxGeometry width="30" height="30" as="geometry">
            <mxRectangle width="30" height="30" as="alternateBounds" />
          </mxGeometry>
        </mxCell>
        <mxCell id="eUyd_0DqcIvyvXxCe3qK-29" value="department_id NOT NULL" style="shape=partialRectangle;connectable=0;fillColor=none;top=0;left=0;bottom=0;right=0;align=left;spacingLeft=6;fontStyle=5;overflow=hidden;" parent="eUyd_0DqcIvyvXxCe3qK-27" vertex="1">
          <mxGeometry x="30" width="237" height="30" as="geometry">
            <mxRectangle width="237" height="30" as="alternateBounds" />
          </mxGeometry>
        </mxCell>
        <mxCell id="eUyd_0DqcIvyvXxCe3qK-33" value="" style="shape=tableRow;horizontal=0;startSize=0;swimlaneHead=0;swimlaneBody=0;fillColor=none;collapsible=0;dropTarget=0;points=[[0,0.5],[1,0.5]];portConstraint=eastwest;top=0;left=0;right=0;bottom=0;" parent="eUyd_0DqcIvyvXxCe3qK-26" vertex="1">
          <mxGeometry y="60" width="267" height="30" as="geometry" />
        </mxCell>
        <mxCell id="eUyd_0DqcIvyvXxCe3qK-34" value="" style="shape=partialRectangle;connectable=0;fillColor=none;top=0;left=0;bottom=0;right=0;editable=1;overflow=hidden;" parent="eUyd_0DqcIvyvXxCe3qK-33" vertex="1">
          <mxGeometry width="30" height="30" as="geometry">
            <mxRectangle width="30" height="30" as="alternateBounds" />
          </mxGeometry>
        </mxCell>
        <mxCell id="eUyd_0DqcIvyvXxCe3qK-35" value="hospital_name char(50) NOT NULL" style="shape=partialRectangle;connectable=0;fillColor=none;top=0;left=0;bottom=0;right=0;align=left;spacingLeft=6;overflow=hidden;" parent="eUyd_0DqcIvyvXxCe3qK-33" vertex="1">
          <mxGeometry x="30" width="237" height="30" as="geometry">
            <mxRectangle width="237" height="30" as="alternateBounds" />
          </mxGeometry>
        </mxCell>
        <mxCell id="eUyd_0DqcIvyvXxCe3qK-36" value="" style="shape=tableRow;horizontal=0;startSize=0;swimlaneHead=0;swimlaneBody=0;fillColor=none;collapsible=0;dropTarget=0;points=[[0,0.5],[1,0.5]];portConstraint=eastwest;top=0;left=0;right=0;bottom=0;" parent="eUyd_0DqcIvyvXxCe3qK-26" vertex="1">
          <mxGeometry y="90" width="267" height="30" as="geometry" />
        </mxCell>
        <mxCell id="eUyd_0DqcIvyvXxCe3qK-37" value="" style="shape=partialRectangle;connectable=0;fillColor=none;top=0;left=0;bottom=0;right=0;editable=1;overflow=hidden;" parent="eUyd_0DqcIvyvXxCe3qK-36" vertex="1">
          <mxGeometry width="30" height="30" as="geometry">
            <mxRectangle width="30" height="30" as="alternateBounds" />
          </mxGeometry>
        </mxCell>
        <mxCell id="eUyd_0DqcIvyvXxCe3qK-38" value="department_name char(50) NOT NULL" style="shape=partialRectangle;connectable=0;fillColor=none;top=0;left=0;bottom=0;right=0;align=left;spacingLeft=6;overflow=hidden;" parent="eUyd_0DqcIvyvXxCe3qK-36" vertex="1">
          <mxGeometry x="30" width="237" height="30" as="geometry">
            <mxRectangle width="237" height="30" as="alternateBounds" />
          </mxGeometry>
        </mxCell>
        <mxCell id="psWt3YPe9PsFEAI1f0zU-1" style="shape=tableRow;horizontal=0;startSize=0;swimlaneHead=0;swimlaneBody=0;fillColor=none;collapsible=0;dropTarget=0;points=[[0,0.5],[1,0.5]];portConstraint=eastwest;top=0;left=0;right=0;bottom=0;" parent="eUyd_0DqcIvyvXxCe3qK-26" vertex="1">
          <mxGeometry y="120" width="267" height="30" as="geometry" />
        </mxCell>
        <mxCell id="psWt3YPe9PsFEAI1f0zU-2" style="shape=partialRectangle;connectable=0;fillColor=none;top=0;left=0;bottom=0;right=0;editable=1;overflow=hidden;" parent="psWt3YPe9PsFEAI1f0zU-1" vertex="1">
          <mxGeometry width="30" height="30" as="geometry">
            <mxRectangle width="30" height="30" as="alternateBounds" />
          </mxGeometry>
        </mxCell>
        <mxCell id="psWt3YPe9PsFEAI1f0zU-3" value="team_name int NOT NULL" style="shape=partialRectangle;connectable=0;fillColor=none;top=0;left=0;bottom=0;right=0;align=left;spacingLeft=6;overflow=hidden;" parent="psWt3YPe9PsFEAI1f0zU-1" vertex="1">
          <mxGeometry x="30" width="237" height="30" as="geometry">
            <mxRectangle width="237" height="30" as="alternateBounds" />
          </mxGeometry>
        </mxCell>
        <mxCell id="eUyd_0DqcIvyvXxCe3qK-137" value="shifts" style="shape=table;startSize=30;container=1;collapsible=1;childLayout=tableLayout;fixedRows=1;rowLines=0;fontStyle=1;align=center;resizeLast=1;" parent="1" vertex="1">
          <mxGeometry x="-316" y="-239" width="223" height="260" as="geometry" />
        </mxCell>
        <mxCell id="eUyd_0DqcIvyvXxCe3qK-138" value="" style="shape=partialRectangle;collapsible=0;dropTarget=0;pointerEvents=0;fillColor=none;points=[[0,0.5],[1,0.5]];portConstraint=eastwest;top=0;left=0;right=0;bottom=1;" parent="eUyd_0DqcIvyvXxCe3qK-137" vertex="1">
          <mxGeometry y="30" width="223" height="30" as="geometry" />
        </mxCell>
        <mxCell id="eUyd_0DqcIvyvXxCe3qK-139" value="PK" style="shape=partialRectangle;overflow=hidden;connectable=0;fillColor=none;top=0;left=0;bottom=0;right=0;fontStyle=1;" parent="eUyd_0DqcIvyvXxCe3qK-138" vertex="1">
          <mxGeometry width="30" height="30" as="geometry">
            <mxRectangle width="30" height="30" as="alternateBounds" />
          </mxGeometry>
        </mxCell>
        <mxCell id="eUyd_0DqcIvyvXxCe3qK-140" value="shift_idÂ int NOT NULL " style="shape=partialRectangle;overflow=hidden;connectable=0;fillColor=none;top=0;left=0;bottom=0;right=0;align=left;spacingLeft=6;fontStyle=5;" parent="eUyd_0DqcIvyvXxCe3qK-138" vertex="1">
          <mxGeometry x="30" width="193" height="30" as="geometry">
            <mxRectangle width="193" height="30" as="alternateBounds" />
          </mxGeometry>
        </mxCell>
        <mxCell id="eUyd_0DqcIvyvXxCe3qK-141" value="" style="shape=partialRectangle;collapsible=0;dropTarget=0;pointerEvents=0;fillColor=none;points=[[0,0.5],[1,0.5]];portConstraint=eastwest;top=0;left=0;right=0;bottom=0;" parent="eUyd_0DqcIvyvXxCe3qK-137" vertex="1">
          <mxGeometry y="60" width="223" height="30" as="geometry" />
        </mxCell>
        <mxCell id="eUyd_0DqcIvyvXxCe3qK-142" value="FK1" style="shape=partialRectangle;overflow=hidden;connectable=0;fillColor=none;top=0;left=0;bottom=0;right=0;" parent="eUyd_0DqcIvyvXxCe3qK-141" vertex="1">
          <mxGeometry width="30" height="30" as="geometry">
            <mxRectangle width="30" height="30" as="alternateBounds" />
          </mxGeometry>
        </mxCell>
        <mxCell id="eUyd_0DqcIvyvXxCe3qK-143" value="user_id int NOT NULL" style="shape=partialRectangle;overflow=hidden;connectable=0;fillColor=none;top=0;left=0;bottom=0;right=0;align=left;spacingLeft=6;" parent="eUyd_0DqcIvyvXxCe3qK-141" vertex="1">
          <mxGeometry x="30" width="193" height="30" as="geometry">
            <mxRectangle width="193" height="30" as="alternateBounds" />
          </mxGeometry>
        </mxCell>
        <mxCell id="eUyd_0DqcIvyvXxCe3qK-144" value="" style="shape=partialRectangle;collapsible=0;dropTarget=0;pointerEvents=0;fillColor=none;points=[[0,0.5],[1,0.5]];portConstraint=eastwest;top=0;left=0;right=0;bottom=0;" parent="eUyd_0DqcIvyvXxCe3qK-137" vertex="1">
          <mxGeometry y="90" width="223" height="30" as="geometry" />
        </mxCell>
        <mxCell id="eUyd_0DqcIvyvXxCe3qK-145" value="FK2" style="shape=partialRectangle;overflow=hidden;connectable=0;fillColor=none;top=0;left=0;bottom=0;right=0;" parent="eUyd_0DqcIvyvXxCe3qK-144" vertex="1">
          <mxGeometry width="30" height="30" as="geometry">
            <mxRectangle width="30" height="30" as="alternateBounds" />
          </mxGeometry>
        </mxCell>
        <mxCell id="eUyd_0DqcIvyvXxCe3qK-146" value="request_id int NOT NULL" style="shape=partialRectangle;overflow=hidden;connectable=0;fillColor=none;top=0;left=0;bottom=0;right=0;align=left;spacingLeft=6;" parent="eUyd_0DqcIvyvXxCe3qK-144" vertex="1">
          <mxGeometry x="30" width="193" height="30" as="geometry">
            <mxRectangle width="193" height="30" as="alternateBounds" />
          </mxGeometry>
        </mxCell>
        <mxCell id="eUyd_0DqcIvyvXxCe3qK-147" style="shape=partialRectangle;collapsible=0;dropTarget=0;pointerEvents=0;fillColor=none;points=[[0,0.5],[1,0.5]];portConstraint=eastwest;top=0;left=0;right=0;bottom=0;" parent="eUyd_0DqcIvyvXxCe3qK-137" vertex="1">
          <mxGeometry y="120" width="223" height="30" as="geometry" />
        </mxCell>
        <mxCell id="eUyd_0DqcIvyvXxCe3qK-148" style="shape=partialRectangle;overflow=hidden;connectable=0;fillColor=none;top=0;left=0;bottom=0;right=0;" parent="eUyd_0DqcIvyvXxCe3qK-147" vertex="1">
          <mxGeometry width="30" height="30" as="geometry">
            <mxRectangle width="30" height="30" as="alternateBounds" />
          </mxGeometry>
        </mxCell>
        <mxCell id="eUyd_0DqcIvyvXxCe3qK-149" value="shift_month date NOT NULL" style="shape=partialRectangle;overflow=hidden;connectable=0;fillColor=none;top=0;left=0;bottom=0;right=0;align=left;spacingLeft=6;" parent="eUyd_0DqcIvyvXxCe3qK-147" vertex="1">
          <mxGeometry x="30" width="193" height="30" as="geometry">
            <mxRectangle width="193" height="30" as="alternateBounds" />
          </mxGeometry>
        </mxCell>
        <mxCell id="eUyd_0DqcIvyvXxCe3qK-164" style="shape=partialRectangle;collapsible=0;dropTarget=0;pointerEvents=0;fillColor=none;points=[[0,0.5],[1,0.5]];portConstraint=eastwest;top=0;left=0;right=0;bottom=0;" parent="eUyd_0DqcIvyvXxCe3qK-137" vertex="1">
          <mxGeometry y="150" width="223" height="30" as="geometry" />
        </mxCell>
        <mxCell id="eUyd_0DqcIvyvXxCe3qK-165" style="shape=partialRectangle;overflow=hidden;connectable=0;fillColor=none;top=0;left=0;bottom=0;right=0;" parent="eUyd_0DqcIvyvXxCe3qK-164" vertex="1">
          <mxGeometry width="30" height="30" as="geometry">
            <mxRectangle width="30" height="30" as="alternateBounds" />
          </mxGeometry>
        </mxCell>
        <mxCell id="eUyd_0DqcIvyvXxCe3qK-166" value="fixed boolean DEFAULT=False" style="shape=partialRectangle;overflow=hidden;connectable=0;fillColor=none;top=0;left=0;bottom=0;right=0;align=left;spacingLeft=6;" parent="eUyd_0DqcIvyvXxCe3qK-164" vertex="1">
          <mxGeometry x="30" width="193" height="30" as="geometry">
            <mxRectangle width="193" height="30" as="alternateBounds" />
          </mxGeometry>
        </mxCell>
        <mxCell id="eUyd_0DqcIvyvXxCe3qK-150" style="shape=partialRectangle;collapsible=0;dropTarget=0;pointerEvents=0;fillColor=none;points=[[0,0.5],[1,0.5]];portConstraint=eastwest;top=0;left=0;right=0;bottom=0;" parent="eUyd_0DqcIvyvXxCe3qK-137" vertex="1">
          <mxGeometry y="180" width="223" height="30" as="geometry" />
        </mxCell>
        <mxCell id="eUyd_0DqcIvyvXxCe3qK-151" style="shape=partialRectangle;overflow=hidden;connectable=0;fillColor=none;top=0;left=0;bottom=0;right=0;" parent="eUyd_0DqcIvyvXxCe3qK-150" vertex="1">
          <mxGeometry width="30" height="30" as="geometry">
            <mxRectangle width="30" height="30" as="alternateBounds" />
          </mxGeometry>
        </mxCell>
        <mxCell id="eUyd_0DqcIvyvXxCe3qK-152" value="created_at date NOT NULL" style="shape=partialRectangle;overflow=hidden;connectable=0;fillColor=none;top=0;left=0;bottom=0;right=0;align=left;spacingLeft=6;" parent="eUyd_0DqcIvyvXxCe3qK-150" vertex="1">
          <mxGeometry x="30" width="193" height="30" as="geometry">
            <mxRectangle width="193" height="30" as="alternateBounds" />
          </mxGeometry>
        </mxCell>
        <mxCell id="eUyd_0DqcIvyvXxCe3qK-153" style="shape=partialRectangle;collapsible=0;dropTarget=0;pointerEvents=0;fillColor=none;points=[[0,0.5],[1,0.5]];portConstraint=eastwest;top=0;left=0;right=0;bottom=0;" parent="eUyd_0DqcIvyvXxCe3qK-137" vertex="1">
          <mxGeometry y="210" width="223" height="30" as="geometry" />
        </mxCell>
        <mxCell id="eUyd_0DqcIvyvXxCe3qK-154" style="shape=partialRectangle;overflow=hidden;connectable=0;fillColor=none;top=0;left=0;bottom=0;right=0;" parent="eUyd_0DqcIvyvXxCe3qK-153" vertex="1">
          <mxGeometry width="30" height="30" as="geometry">
            <mxRectangle width="30" height="30" as="alternateBounds" />
          </mxGeometry>
        </mxCell>
        <mxCell id="eUyd_0DqcIvyvXxCe3qK-155" value="updated_at date NOT NULL" style="shape=partialRectangle;overflow=hidden;connectable=0;fillColor=none;top=0;left=0;bottom=0;right=0;align=left;spacingLeft=6;" parent="eUyd_0DqcIvyvXxCe3qK-153" vertex="1">
          <mxGeometry x="30" width="193" height="30" as="geometry">
            <mxRectangle width="193" height="30" as="alternateBounds" />
          </mxGeometry>
        </mxCell>
        <mxCell id="543RPNRce5Bn6NiwizpK-21" style="edgeStyle=orthogonalEdgeStyle;rounded=0;orthogonalLoop=1;jettySize=auto;html=1;endArrow=ERoneToMany;endFill=0;startArrow=ERmandOne;startFill=0;entryX=0;entryY=0.5;entryDx=0;entryDy=0;" parent="1" source="543RPNRce5Bn6NiwizpK-1" target="n4sFxxok8GWUAqDK3mre-1" edge="1">
          <mxGeometry relative="1" as="geometry">
            <Array as="points">
              <mxPoint x="-980" y="-270" />
              <mxPoint x="-980" y="-395" />
            </Array>
          </mxGeometry>
        </mxCell>
        <mxCell id="543RPNRce5Bn6NiwizpK-1" value="abilities" style="shape=table;startSize=30;container=1;collapsible=1;childLayout=tableLayout;fixedRows=1;rowLines=0;fontStyle=1;align=center;resizeLast=1;" parent="1" vertex="1">
          <mxGeometry x="-1260" y="-380" width="223" height="220" as="geometry" />
        </mxCell>
        <mxCell id="543RPNRce5Bn6NiwizpK-2" value="" style="shape=partialRectangle;collapsible=0;dropTarget=0;pointerEvents=0;fillColor=none;points=[[0,0.5],[1,0.5]];portConstraint=eastwest;top=0;left=0;right=0;bottom=1;" parent="543RPNRce5Bn6NiwizpK-1" vertex="1">
          <mxGeometry y="30" width="223" height="30" as="geometry" />
        </mxCell>
        <mxCell id="543RPNRce5Bn6NiwizpK-3" value="PK" style="shape=partialRectangle;overflow=hidden;connectable=0;fillColor=none;top=0;left=0;bottom=0;right=0;fontStyle=1;" parent="543RPNRce5Bn6NiwizpK-2" vertex="1">
          <mxGeometry width="30" height="30" as="geometry">
            <mxRectangle width="30" height="30" as="alternateBounds" />
          </mxGeometry>
        </mxCell>
        <mxCell id="543RPNRce5Bn6NiwizpK-4" value="abiility_id int NOT NULL " style="shape=partialRectangle;overflow=hidden;connectable=0;fillColor=none;top=0;left=0;bottom=0;right=0;align=left;spacingLeft=6;fontStyle=5;" parent="543RPNRce5Bn6NiwizpK-2" vertex="1">
          <mxGeometry x="30" width="193" height="30" as="geometry">
            <mxRectangle width="193" height="30" as="alternateBounds" />
          </mxGeometry>
        </mxCell>
        <mxCell id="543RPNRce5Bn6NiwizpK-5" style="shape=partialRectangle;collapsible=0;dropTarget=0;pointerEvents=0;fillColor=none;points=[[0,0.5],[1,0.5]];portConstraint=eastwest;top=0;left=0;right=0;bottom=0;" parent="543RPNRce5Bn6NiwizpK-1" vertex="1">
          <mxGeometry y="60" width="223" height="30" as="geometry" />
        </mxCell>
        <mxCell id="543RPNRce5Bn6NiwizpK-6" value="" style="shape=partialRectangle;overflow=hidden;connectable=0;fillColor=none;top=0;left=0;bottom=0;right=0;" parent="543RPNRce5Bn6NiwizpK-5" vertex="1">
          <mxGeometry width="30" height="30" as="geometry">
            <mxRectangle width="30" height="30" as="alternateBounds" />
          </mxGeometry>
        </mxCell>
        <mxCell id="543RPNRce5Bn6NiwizpK-7" value="leader boolean DEFAULT=False" style="shape=partialRectangle;overflow=hidden;connectable=0;fillColor=none;top=0;left=0;bottom=0;right=0;align=left;spacingLeft=6;" parent="543RPNRce5Bn6NiwizpK-5" vertex="1">
          <mxGeometry x="30" width="193" height="30" as="geometry">
            <mxRectangle width="193" height="30" as="alternateBounds" />
          </mxGeometry>
        </mxCell>
        <mxCell id="543RPNRce5Bn6NiwizpK-8" value="" style="shape=partialRectangle;collapsible=0;dropTarget=0;pointerEvents=0;fillColor=none;points=[[0,0.5],[1,0.5]];portConstraint=eastwest;top=0;left=0;right=0;bottom=0;" parent="543RPNRce5Bn6NiwizpK-1" vertex="1">
          <mxGeometry y="90" width="223" height="30" as="geometry" />
        </mxCell>
        <mxCell id="543RPNRce5Bn6NiwizpK-9" value="" style="shape=partialRectangle;overflow=hidden;connectable=0;fillColor=none;top=0;left=0;bottom=0;right=0;" parent="543RPNRce5Bn6NiwizpK-8" vertex="1">
          <mxGeometry width="30" height="30" as="geometry">
            <mxRectangle width="30" height="30" as="alternateBounds" />
          </mxGeometry>
        </mxCell>
        <mxCell id="543RPNRce5Bn6NiwizpK-10" value="herz boolean DEFAULT=False" style="shape=partialRectangle;overflow=hidden;connectable=0;fillColor=none;top=0;left=0;bottom=0;right=0;align=left;spacingLeft=6;" parent="543RPNRce5Bn6NiwizpK-8" vertex="1">
          <mxGeometry x="30" width="193" height="30" as="geometry">
            <mxRectangle width="193" height="30" as="alternateBounds" />
          </mxGeometry>
        </mxCell>
        <mxCell id="543RPNRce5Bn6NiwizpK-11" style="shape=partialRectangle;collapsible=0;dropTarget=0;pointerEvents=0;fillColor=none;points=[[0,0.5],[1,0.5]];portConstraint=eastwest;top=0;left=0;right=0;bottom=0;" parent="543RPNRce5Bn6NiwizpK-1" vertex="1">
          <mxGeometry y="120" width="223" height="30" as="geometry" />
        </mxCell>
        <mxCell id="543RPNRce5Bn6NiwizpK-12" style="shape=partialRectangle;overflow=hidden;connectable=0;fillColor=none;top=0;left=0;bottom=0;right=0;" parent="543RPNRce5Bn6NiwizpK-11" vertex="1">
          <mxGeometry width="30" height="30" as="geometry">
            <mxRectangle width="30" height="30" as="alternateBounds" />
          </mxGeometry>
        </mxCell>
        <mxCell id="543RPNRce5Bn6NiwizpK-13" value="ecmo boolean DEFAULT=False" style="shape=partialRectangle;overflow=hidden;connectable=0;fillColor=none;top=0;left=0;bottom=0;right=0;align=left;spacingLeft=6;" parent="543RPNRce5Bn6NiwizpK-11" vertex="1">
          <mxGeometry x="30" width="193" height="30" as="geometry">
            <mxRectangle width="193" height="30" as="alternateBounds" />
          </mxGeometry>
        </mxCell>
        <mxCell id="543RPNRce5Bn6NiwizpK-14" style="shape=partialRectangle;collapsible=0;dropTarget=0;pointerEvents=0;fillColor=none;points=[[0,0.5],[1,0.5]];portConstraint=eastwest;top=0;left=0;right=0;bottom=0;" parent="543RPNRce5Bn6NiwizpK-1" vertex="1">
          <mxGeometry y="150" width="223" height="30" as="geometry" />
        </mxCell>
        <mxCell id="543RPNRce5Bn6NiwizpK-15" style="shape=partialRectangle;overflow=hidden;connectable=0;fillColor=none;top=0;left=0;bottom=0;right=0;" parent="543RPNRce5Bn6NiwizpK-14" vertex="1">
          <mxGeometry width="30" height="30" as="geometry">
            <mxRectangle width="30" height="30" as="alternateBounds" />
          </mxGeometry>
        </mxCell>
        <mxCell id="543RPNRce5Bn6NiwizpK-16" value="created_at date NOT NULL" style="shape=partialRectangle;overflow=hidden;connectable=0;fillColor=none;top=0;left=0;bottom=0;right=0;align=left;spacingLeft=6;" parent="543RPNRce5Bn6NiwizpK-14" vertex="1">
          <mxGeometry x="30" width="193" height="30" as="geometry">
            <mxRectangle width="193" height="30" as="alternateBounds" />
          </mxGeometry>
        </mxCell>
        <mxCell id="543RPNRce5Bn6NiwizpK-17" style="shape=partialRectangle;collapsible=0;dropTarget=0;pointerEvents=0;fillColor=none;points=[[0,0.5],[1,0.5]];portConstraint=eastwest;top=0;left=0;right=0;bottom=0;" parent="543RPNRce5Bn6NiwizpK-1" vertex="1">
          <mxGeometry y="180" width="223" height="30" as="geometry" />
        </mxCell>
        <mxCell id="543RPNRce5Bn6NiwizpK-18" style="shape=partialRectangle;overflow=hidden;connectable=0;fillColor=none;top=0;left=0;bottom=0;right=0;" parent="543RPNRce5Bn6NiwizpK-17" vertex="1">
          <mxGeometry width="30" height="30" as="geometry">
            <mxRectangle width="30" height="30" as="alternateBounds" />
          </mxGeometry>
        </mxCell>
        <mxCell id="543RPNRce5Bn6NiwizpK-19" value="updated_at date NOT NULL" style="shape=partialRectangle;overflow=hidden;connectable=0;fillColor=none;top=0;left=0;bottom=0;right=0;align=left;spacingLeft=6;" parent="543RPNRce5Bn6NiwizpK-17" vertex="1">
          <mxGeometry x="30" width="193" height="30" as="geometry">
            <mxRectangle width="193" height="30" as="alternateBounds" />
          </mxGeometry>
        </mxCell>
        <mxCell id="XBP4z5iZkI8xwQalae-l-5" style="edgeStyle=orthogonalEdgeStyle;rounded=0;orthogonalLoop=1;jettySize=auto;html=1;endArrow=ERoneToMany;endFill=0;startArrow=ERmandOne;startFill=0;entryX=0;entryY=0.5;entryDx=0;entryDy=0;exitX=1;exitY=0.5;exitDx=0;exitDy=0;" edge="1" parent="1" source="eUyd_0DqcIvyvXxCe3qK-27" target="eUyd_0DqcIvyvXxCe3qK-10">
          <mxGeometry relative="1" as="geometry">
            <mxPoint x="-1027" y="-259.9333333333334" as="sourcePoint" />
            <mxPoint x="-920" y="-365" as="targetPoint" />
          </mxGeometry>
        </mxCell>
        <mxCell id="XBP4z5iZkI8xwQalae-l-6" style="edgeStyle=orthogonalEdgeStyle;rounded=0;orthogonalLoop=1;jettySize=auto;html=1;endArrow=ERoneToMany;endFill=0;startArrow=ERmandOne;startFill=0;entryX=0;entryY=0.5;entryDx=0;entryDy=0;exitX=1;exitY=0.5;exitDx=0;exitDy=0;" edge="1" parent="1" source="C-vyLk0tnHw3VtMMgP7b-24" target="eUyd_0DqcIvyvXxCe3qK-141">
          <mxGeometry relative="1" as="geometry">
            <mxPoint x="-550" y="-560" as="sourcePoint" />
            <mxPoint x="-457" y="-400" as="targetPoint" />
            <Array as="points">
              <mxPoint x="-355" y="-455" />
              <mxPoint x="-355" y="-164" />
            </Array>
          </mxGeometry>
        </mxCell>
        <mxCell id="XBP4z5iZkI8xwQalae-l-7" style="edgeStyle=orthogonalEdgeStyle;rounded=0;orthogonalLoop=1;jettySize=auto;html=1;endArrow=ERoneToMany;endFill=0;startArrow=ERmandOne;startFill=0;entryX=0;entryY=0.5;entryDx=0;entryDy=0;" edge="1" parent="1" source="C-vyLk0tnHw3VtMMgP7b-24" target="C-vyLk0tnHw3VtMMgP7b-6">
          <mxGeometry relative="1" as="geometry">
            <mxPoint x="-560" y="-600" as="sourcePoint" />
            <mxPoint x="-467" y="-440" as="targetPoint" />
          </mxGeometry>
        </mxCell>
        <mxCell id="XBP4z5iZkI8xwQalae-l-8" style="edgeStyle=orthogonalEdgeStyle;rounded=0;orthogonalLoop=1;jettySize=auto;html=1;endArrow=ERoneToMany;endFill=0;startArrow=ERmandOne;startFill=0;exitX=1;exitY=0.5;exitDx=0;exitDy=0;entryX=0;entryY=0.5;entryDx=0;entryDy=0;" edge="1" parent="1" source="C-vyLk0tnHw3VtMMgP7b-3" target="eUyd_0DqcIvyvXxCe3qK-144">
          <mxGeometry relative="1" as="geometry">
            <mxPoint x="-360" y="-690" as="sourcePoint" />
            <mxPoint x="-313" y="-97" as="targetPoint" />
            <Array as="points">
              <mxPoint x="-385" y="-296" />
              <mxPoint x="-385" y="-134" />
            </Array>
          </mxGeometry>
        </mxCell>
      </root>
    </mxGraphModel>
  </diagram>
</mxfile>
